<svg xmlns="http://www.w3.org/2000/svg" xmlns:xlink="http://www.w3.org/1999/xlink" viewBox="0 0 215.22 116.94"><defs><linearGradient id="a" x1="585.04" y1="593.27" x2="425.56" y2="614.83" gradientTransform="matrix(1, 0, 0, -1, 0, 1026)" gradientUnits="userSpaceOnUse"><stop offset="0" stop-color="#101c50"/><stop offset="0.24" stop-color="#0d267a"/><stop offset="0.5" stop-color="#085aa4"/><stop offset="0.65" stop-color="#058bbf"/><stop offset="1" stop-color="#b1ffff"/></linearGradient></defs><title>Disney plus logo</title><path d="M482.49,474.23l.26,0a20.28,20.28,0,0,1,5.3,1.26,5.47,5.47,0,0,1,2.87,2.7A7.66,7.66,0,0,1,487.23,489a14.32,14.32,0,0,1-4.81,1.3,17.14,17.14,0,0,1-9.1-1.63,10.91,10.91,0,0,1-4.61-3.92,3.9,3.9,0,0,1,.18-4.19c1.43-2,4.49-2.38,6.79-2.3a28.15,28.15,0,0,1,6.59,1.2,12.69,12.69,0,0,1,2.46,1.14.82.82,0,0,1,.25.8c-.38,1.17-3.21,1.78-4,1.9-2.19.34-3.32-.49-5.81-1.48a8.55,8.55,0,0,0-2.07-.57c-1.13-.11-2.49.21-2.71,1.44-.11.64.64,1.23,1.21,1.48a9.11,9.11,0,0,0,3.73.8c3.88.06,8.24-.58,11.42-2.82a1.77,1.77,0,0,0,.87-1.34c0-1.16-2-1.86-2-1.86-2.14-.89-6.09-1.33-8.12-1.49s-5.5-.46-6.3-.58a9.52,9.52,0,0,1-2.45-.61,3.06,3.06,0,0,1-1.64-1.87A5.78,5.78,0,0,1,468,470c2.12-3,7.09-4.21,10.8-4.67s9.4-.44,12.93,1.43c.54.29.82.56.71,1.15a2.83,2.83,0,0,1-2,2.11,22.64,22.64,0,0,1-4.16.52c-4.25.24-9.39.11-13.45,1.22a2.8,2.8,0,0,0-1,.44c-.63.69,1.18.89,1.57,1l.26,0,9,1.06m-25.31-19s.69-1,1.27-1.83a32.85,32.85,0,0,1,4.4-4.65l1-.8s-.81.08-1.27.18a9.71,9.71,0,0,0-3.49,2c-1.32,1.13-2.77,3-2.11,4.6.1.23.24.54.24.54m7.34,2a13.93,13.93,0,0,0,5.86-1.75c1.78-1,4.41-2.94,4.13-5.23a1.92,1.92,0,0,0-1.18-1.56,2.67,2.67,0,0,0-2.23,0,6.68,6.68,0,0,0-1.77.75,27,27,0,0,0-6.52,5.76c-.36.48-.73,1-1,1.38s-.32.43-.31.49c.06.23,2.21.21,3,.15m-5.31,3.9a9.1,9.1,0,0,0-.68,1.17,2.34,2.34,0,0,1-.51.6,1.06,1.06,0,0,1-1.53,0,3.73,3.73,0,0,1-1.19-2.63,8,8,0,0,0,0-1.26,8.2,8.2,0,0,0-1.07-1.81,7.12,7.12,0,0,1-.73-2.65,8.84,8.84,0,0,1,2.78-6.36,18.36,18.36,0,0,1,6.18-4.23c2.23-.94,5.49-1.58,7.93-.73a6,6,0,0,1,2.46,1.66,1.81,1.81,0,0,0,.34.38,2.51,2.51,0,0,0,.62.14,6.19,6.19,0,0,1,2.36,1.12,4.52,4.52,0,0,1,1.66,2.66c.47,2.22-.81,4.65-2.26,6.13a22.43,22.43,0,0,1-8.14,5.59,13,13,0,0,1-5.17.91c-.49,0-1-.17-1.48-.2a6.78,6.78,0,0,1-1.24-.32c-.12-.09-.27-.17-.3-.14m2.85,4.92a2.21,2.21,0,0,1,.38.11,3.29,3.29,0,0,1,1.85,2.6,78.47,78.47,0,0,1,1,10.76c.08,1.71.12,3.4.19,5.1a20.29,20.29,0,0,1-.12,4.69,2.21,2.21,0,0,1-.9,1.33,4.07,4.07,0,0,1-2.4.23c-1.64-.34-2.17-1.39-2.4-3a80.8,80.8,0,0,1,0-14.64,31.82,31.82,0,0,1,1.06-5.86c.19-.48.59-1.44,1.29-1.31m-49.77,6.42s-2.44.17-4.11.36a45.43,45.43,0,0,0-8.45,1.75c-.69.25-2.1.84-2.23,1.55a2.39,2.39,0,0,0,.84,1.92c.3.35,2,2,2.43,2.34a42.14,42.14,0,0,0,8.88,5.39c1,.42,2.67,1,2.67,1s-.12-4.74-.1-9.42c0-2.47.07-4.91.07-4.91m44.65,1.89a20.47,20.47,0,0,1-.24,4,18.45,18.45,0,0,1-.75,2.63,30,30,0,0,1-1.35,2.71,22.42,22.42,0,0,1-3.82,4.69c-4.19,3.62-10.68,5.69-16.25,6.36a41.4,41.4,0,0,1-12.12-.35c-1.38-.25-3.43-.72-3.43-.72s0,.82-.06,1.4a5.8,5.8,0,0,1-.34,1.18,1.87,1.87,0,0,1-1.46,1,4.37,4.37,0,0,1-2.5-.12c-1.27-.54-1.73-1.73-2-3.1-.18-1.1-.37-3-.37-3s-1-.45-1.75-.85a45.14,45.14,0,0,1-6.78-4.15c-.56-.42-3-2.44-3.5-2.94a19.89,19.89,0,0,1-3.86-4.63,4.43,4.43,0,0,1-.42-4.16c.83-2.09,3.82-3.66,5.87-4.55a48.84,48.84,0,0,1,8.11-2.47c.92-.13,2.34-.39,2.43-.44l.09-.08c0-.06.12-2.13.11-2.88s.55-5.62.73-6.65a12.09,12.09,0,0,1,.95-3.27.86.86,0,0,1,1.19-.1c2.23,1.38,2.9,6.18,3.07,8.63.1,1.49.15,3.73.15,3.73s2.55-.08,4.12,0a37.07,37.07,0,0,1,4.79.53,33.75,33.75,0,0,1,8.25,2.34A8.4,8.4,0,0,1,440,473.3a4.3,4.3,0,0,1-.35,4,5.62,5.62,0,0,1-4.33,2.85,7.12,7.12,0,0,1-3-.69.53.53,0,0,1-.05-.74c.06-.08,1-.56,1.5-.84a3.46,3.46,0,0,0,.7-.49c.44-.39.84-.82.8-1.32-.06-.65-.75-1.06-1.41-1.32a51.66,51.66,0,0,0-12.27-2.43c-1.17-.07-2.83-.13-2.83-.13l.35,16.5s1.38.26,2.46.44c.62.09,3.26.33,4,.35,5.33.14,11.28-.34,16.17-2.65a16.85,16.85,0,0,0,5.61-4,11.54,11.54,0,0,0,2.72-8.56c-.3-3.52-2.78-7.7-4.75-10.24-5.23-6.72-14.18-12.25-22.06-15.49a70.3,70.3,0,0,0-24.53-5.53,40.7,40.7,0,0,0-9.43.7c-.35.1-.7.21-1,.29a2.83,2.83,0,0,0-.76.32l-.12.12.29.14c.26.11,1.34.18,1.9.28a1.83,1.83,0,0,1,1.23.72.73.73,0,0,1,0,.91c-.55.67-2.62.56-3.53.41s-2.13-.44-2.34-1.26a3.86,3.86,0,0,1,.71-2.8,6.76,6.76,0,0,1,4.53-3.25,46.15,46.15,0,0,1,9.56-1.5,55.82,55.82,0,0,1,18.58,2.75,88.79,88.79,0,0,1,11.55,4.49,90.59,90.59,0,0,1,8.41,4.74c.68.45,4.65,3.37,5.27,3.88,1.29,1.05,3,2.56,4.19,3.77a38.93,38.93,0,0,1,6.72,8.76c.34.68.61,1.35,1.05,2.14a19,19,0,0,1,.91,2.35c.11.46.26,1.14.29,1.17a16.75,16.75,0,0,1,.31,2.17m80.13-3.65a96.59,96.59,0,0,1-10.83,1.07l-1,3.1a44,44,0,0,1,6.78,0s.92-.11,1,1a18,18,0,0,1-.09,2.24s-.06.7-1.05.88-8.45.46-8.45.46l-1.19,4s-.44.93.55.67,8.66-1.7,9.66-1.49a2.76,2.76,0,0,1,1.93,3c-.41,1.63-8.13,6.55-12.83,6.2,0,0-2.47.16-4.56-3.17-1.94-3.18.74-9.19.74-9.19s-1.23-2.81-.34-3.76a3.63,3.63,0,0,1,2.07-.59l1.89-3.91a4.39,4.39,0,0,1-3.44-1.44c-1.19-1.5-1.29-2.19-.38-2.61s10-2.12,16.12-1.91c0,0,2.15-.21,4,3.51,0,0,.9,1.51-.63,1.87m-23.22,15c-.79,1.86-2.88,3.85-5.48,2.61s-6.65-9.59-6.65-9.59-1.55-3.12-1.85-3c0,0-.33-.61-.54,2.8s0,10-1.31,11a2.39,2.39,0,0,1-3.64-.59c-.73-1.2-1-4.05-.64-9.07s1.64-10.36,3.13-12a1.92,1.92,0,0,1,3.15,0s2,1.8,5.27,7.1l.58,1s3,5,3.3,5c0,0,.24.23.46.06s.19-1.69.19-1.69a96.41,96.41,0,0,0-3.34-14.69,4.33,4.33,0,0,1-.13-2.23c.28-1.09,1.37-.58,1.37-.58s4.22,2.12,6.27,9,.67,13.07-.14,14.94m45.4-4.11c-1.92,3.35-7.34,10.37-14.55,8.71a74.93,74.93,0,0,0-5.52,20.34s-.25,1.7-1.66,1.11-3.7-2.81-4.17-6c-.5-4.22,1.38-11.36,5.22-19.55a11.23,11.23,0,0,1-1.23-8.13s1-6.88,7.88-13.09c0,0,.83-.72,1.31-.5s.28,2.46-.14,3.55-3.51,6.41-3.51,6.41-1.92,3.6-1.38,6.44c3.63-5.57,11.87-16.81,17-13.27,1.72,1.23,2.51,3.9,2.51,6.78a15.35,15.35,0,0,1-1.74,7.23m-1.49-8.83s-.28-2.22-2.45.23a52.72,52.72,0,0,0-7.93,11.16,13.16,13.16,0,0,0,6.4-2.64c1.35-1.19,4.48-4.43,4-8.74m41.18-.5h-13.2A103.89,103.89,0,0,0,584.07,459a1,1,0,0,0-1-.8h-3a.9.9,0,0,0-.88,1.07,96.64,96.64,0,0,1,1.68,13.1h-12.7a1.07,1.07,0,0,0-1.07,1.07v2.75a1.07,1.07,0,0,0,1.07,1.07H581c0,.68,0,1.28,0,1.85a96.15,96.15,0,0,1-.57,10.89,1,1,0,0,0,1,1.11h2.82a1.07,1.07,0,0,0,1.06-1,101.37,101.37,0,0,0,.55-11c0-.57,0-1.18,0-1.85h13a1.08,1.08,0,0,0,1.07-1.07v-2.75a1.07,1.07,0,0,0-1.07-1.07" transform="translate(-384.78 -394.98)" style="fill:#101c50"/><path d="M422.38,435.52a1.06,1.06,0,0,0-.12.94,1.09,1.09,0,0,0,.67.67l2.37.8a1.42,1.42,0,0,0,.42.07,1.32,1.32,0,0,0,1.09-.58,86.12,86.12,0,0,1,71.28-37.77,86.22,86.22,0,0,1,79.38,52.62,1.24,1.24,0,0,0,1.14.76h2.83a1,1,0,0,0,.91-1.36,91,91,0,0,0-160-16.15" transform="translate(-384.78 -394.98)" style="fill:url(#a)"/></svg>